<mxfile host="Electron" modified="2023-08-25T19:38:05.268Z" agent="Mozilla/5.0 (Windows NT 10.0; Win64; x64) AppleWebKit/537.36 (KHTML, like Gecko) draw.io/21.6.8 Chrome/114.0.5735.289 Electron/25.5.0 Safari/537.36" etag="VoGnAjXOIdFezPwzAxlo" version="21.6.8" type="device">
  <diagram name="Page-1" id="cw9fFKvnAfW_I-N1I-tk">
    <mxGraphModel dx="-644" dy="1064" grid="1" gridSize="10" guides="1" tooltips="1" connect="1" arrows="1" fold="1" page="1" pageScale="1" pageWidth="1654" pageHeight="1169" background="#FFFFFF" math="0" shadow="0">
      <root>
        <mxCell id="0" />
        <mxCell id="1" parent="0" />
        <mxCell id="0B3zLSmvpdkR-Nhf8iE4-92" value="" style="rounded=0;whiteSpace=wrap;html=1;strokeWidth=4;" vertex="1" parent="1">
          <mxGeometry x="3320" y="10" width="1630" height="1150" as="geometry" />
        </mxCell>
        <mxCell id="0B3zLSmvpdkR-Nhf8iE4-2" value="" style="endArrow=classic;html=1;rounded=0;fontSize=14;fontFamily=Signika Negative;fontSource=https%3A%2F%2Ffonts.googleapis.com%2Fcss%3Ffamily%3DSignika%2BNegative;" edge="1" parent="1">
          <mxGeometry x="-0.1291" y="-2" width="50" height="50" relative="1" as="geometry">
            <mxPoint x="3547.261377245509" y="229.44501057082454" as="sourcePoint" />
            <mxPoint x="4041.083982035928" y="371" as="targetPoint" />
            <Array as="points">
              <mxPoint x="4041.083982035928" y="229.44501057082454" />
            </Array>
            <mxPoint as="offset" />
          </mxGeometry>
        </mxCell>
        <mxCell id="0B3zLSmvpdkR-Nhf8iE4-3" value="CUSTOMER" style="rounded=0;whiteSpace=wrap;html=1;fontSize=26;fontFamily=Inter;strokeWidth=2;shadow=1;fontStyle=1;fontSource=https%3A%2F%2Ffonts.googleapis.com%2Fcss%3Ffamily%3DInter;" vertex="1" parent="1">
          <mxGeometry x="4704.785329341317" y="915.1321141649049" width="206.26497005988023" height="204.5031712473573" as="geometry" />
        </mxCell>
        <mxCell id="0B3zLSmvpdkR-Nhf8iE4-4" value="&lt;font style=&quot;font-size: 26px;&quot;&gt;VISITOR&lt;/font&gt;" style="rounded=0;whiteSpace=wrap;html=1;fontSize=26;fontFamily=Inter;strokeWidth=2;shadow=1;fontSource=https%3A%2F%2Ffonts.googleapis.com%2Fcss%3Ffamily%3DInter;fontStyle=1" vertex="1" parent="1">
          <mxGeometry x="4704.785329341317" y="49.00103594080338" width="206.26497005988023" height="204.5031712473573" as="geometry" />
        </mxCell>
        <mxCell id="0B3zLSmvpdkR-Nhf8iE4-5" value="TONSORIUM OWNER" style="rounded=0;whiteSpace=wrap;html=1;fontSize=26;fontFamily=Inter;strokeWidth=2;shadow=1;fontSource=https%3A%2F%2Ffonts.googleapis.com%2Fcss%3Ffamily%3DInter;fontStyle=1" vertex="1" parent="1">
          <mxGeometry x="3357.996407185629" y="915.1321141649049" width="206.26497005988023" height="204.5031712473573" as="geometry" />
        </mxCell>
        <mxCell id="0B3zLSmvpdkR-Nhf8iE4-6" value="" style="endArrow=classic;html=1;rounded=0;labelPosition=center;verticalLabelPosition=middle;align=center;verticalAlign=middle;spacingLeft=0;spacingRight=275;fontSize=14;horizontal=1;fontStyle=0;fontFamily=Signika Negative;fontSource=https%3A%2F%2Ffonts.googleapis.com%2Fcss%3Ffamily%3DSignika%2BNegative;" edge="1" parent="1">
          <mxGeometry x="-0.0029" width="50" height="50" relative="1" as="geometry">
            <mxPoint x="3546" y="72" as="sourcePoint" />
            <mxPoint x="4120" y="345" as="targetPoint" />
            <Array as="points">
              <mxPoint x="4121.163323353293" y="71.85727272727273" />
            </Array>
            <mxPoint as="offset" />
          </mxGeometry>
        </mxCell>
        <mxCell id="0B3zLSmvpdkR-Nhf8iE4-8" value="" style="endArrow=classic;html=1;rounded=0;spacingRight=250;fontFamily=Signika Negative;fontSource=https%3A%2F%2Ffonts.googleapis.com%2Fcss%3Ffamily%3DSignika%2BNegative;fontSize=14;" edge="1" parent="1">
          <mxGeometry x="0.0926" width="50" height="50" relative="1" as="geometry">
            <mxPoint x="3547" y="124" as="sourcePoint" />
            <mxPoint x="4094" y="349" as="targetPoint" />
            <Array as="points">
              <mxPoint x="4093.976946107784" y="125.42598308668076" />
            </Array>
            <mxPoint as="offset" />
          </mxGeometry>
        </mxCell>
        <mxCell id="0B3zLSmvpdkR-Nhf8iE4-10" value="" style="endArrow=classic;html=1;rounded=0;fontSize=14;fontFamily=Signika Negative;fontSource=https%3A%2F%2Ffonts.googleapis.com%2Fcss%3Ffamily%3DSignika%2BNegative;" edge="1" parent="1">
          <mxGeometry x="-0.2041" width="50" height="50" relative="1" as="geometry">
            <mxPoint x="3546" y="178" as="sourcePoint" />
            <mxPoint x="4067" y="357" as="targetPoint" />
            <Array as="points">
              <mxPoint x="4067.1371257485025" y="177.73253699788583" />
            </Array>
            <mxPoint as="offset" />
          </mxGeometry>
        </mxCell>
        <mxCell id="0B3zLSmvpdkR-Nhf8iE4-11" value="" style="endArrow=classic;html=1;rounded=0;fontSize=14;fontFamily=Signika Negative;fontSource=https%3A%2F%2Ffonts.googleapis.com%2Fcss%3Ffamily%3DSignika%2BNegative;fontStyle=0" edge="1" parent="1">
          <mxGeometry x="-0.4311" width="50" height="50" relative="1" as="geometry">
            <mxPoint x="4705" y="72" as="sourcePoint" />
            <mxPoint x="4151" y="346" as="targetPoint" />
            <Array as="points">
              <mxPoint x="4151.363173652695" y="71.85727272727273" />
            </Array>
            <mxPoint as="offset" />
          </mxGeometry>
        </mxCell>
        <mxCell id="0B3zLSmvpdkR-Nhf8iE4-13" value="" style="endArrow=classic;html=1;rounded=0;fontSize=14;fontFamily=Signika Negative;fontSource=https%3A%2F%2Ffonts.googleapis.com%2Fcss%3Ffamily%3DSignika%2BNegative;" edge="1" parent="1">
          <mxGeometry x="-0.362" width="50" height="50" relative="1" as="geometry">
            <mxPoint x="4705" y="125" as="sourcePoint" />
            <mxPoint x="4174" y="350" as="targetPoint" />
            <Array as="points">
              <mxPoint x="4175.41631736527" y="124.99046511627907" />
            </Array>
            <mxPoint as="offset" />
          </mxGeometry>
        </mxCell>
        <mxCell id="0B3zLSmvpdkR-Nhf8iE4-14" value="" style="endArrow=classic;html=1;rounded=0;fontFamily=Signika Negative;fontSource=https%3A%2F%2Ffonts.googleapis.com%2Fcss%3Ffamily%3DSignika%2BNegative;fontSize=14;" edge="1" parent="1">
          <mxGeometry x="-0.3297" width="50" height="50" relative="1" as="geometry">
            <mxPoint x="4705" y="177" as="sourcePoint" />
            <mxPoint x="4200" y="359" as="targetPoint" />
            <Array as="points">
              <mxPoint x="4199.682784431137" y="176.92069767441862" />
            </Array>
            <mxPoint as="offset" />
          </mxGeometry>
        </mxCell>
        <mxCell id="0B3zLSmvpdkR-Nhf8iE4-15" value="" style="endArrow=classic;html=1;rounded=0;fontSize=14;fontFamily=Signika Negative;fontSource=https%3A%2F%2Ffonts.googleapis.com%2Fcss%3Ffamily%3DSignika%2BNegative;" edge="1" parent="1">
          <mxGeometry x="-0.2393" width="50" height="50" relative="1" as="geometry">
            <mxPoint x="4705" y="233" as="sourcePoint" />
            <mxPoint x="4225" y="372" as="targetPoint" />
            <Array as="points">
              <mxPoint x="4224.522604790419" y="233.05389006342494" />
            </Array>
            <mxPoint as="offset" />
          </mxGeometry>
        </mxCell>
        <mxCell id="0B3zLSmvpdkR-Nhf8iE4-17" value="" style="endArrow=classic;html=1;rounded=0;fontFamily=Signika Negative;fontSource=https%3A%2F%2Ffonts.googleapis.com%2Fcss%3Ffamily%3DSignika%2BNegative;fontSize=14;" edge="1" parent="1">
          <mxGeometry x="-0.4476" width="50" height="50" relative="1" as="geometry">
            <mxPoint x="4292" y="454.29913319238904" as="sourcePoint" />
            <mxPoint x="4899.357185628743" y="254" as="targetPoint" />
            <Array as="points">
              <mxPoint x="4899.357185628743" y="454.29913319238904" />
            </Array>
            <mxPoint as="offset" />
          </mxGeometry>
        </mxCell>
        <mxCell id="0B3zLSmvpdkR-Nhf8iE4-19" value="" style="endArrow=classic;html=1;rounded=0;fontFamily=Signika Negative;fontSource=https%3A%2F%2Ffonts.googleapis.com%2Fcss%3Ffamily%3DSignika%2BNegative;fontSize=14;" edge="1" parent="1">
          <mxGeometry x="-0.3294" width="50" height="50" relative="1" as="geometry">
            <mxPoint x="4282" y="429.39849894291757" as="sourcePoint" />
            <mxPoint x="4842" y="254" as="targetPoint" />
            <Array as="points">
              <mxPoint x="4841.037574850299" y="429.39849894291757" />
            </Array>
            <mxPoint as="offset" />
          </mxGeometry>
        </mxCell>
        <mxCell id="0B3zLSmvpdkR-Nhf8iE4-20" value="" style="endArrow=classic;html=1;rounded=0;fontFamily=Signika Negative;fontSource=https%3A%2F%2Ffonts.googleapis.com%2Fcss%3Ffamily%3DSignika%2BNegative;fontSize=14;" edge="1" parent="1">
          <mxGeometry x="-0.2735" width="50" height="50" relative="1" as="geometry">
            <mxPoint x="4262" y="403.4978646934461" as="sourcePoint" />
            <mxPoint x="4778.29131736527" y="254" as="targetPoint" />
            <Array as="points">
              <mxPoint x="4778.29131736527" y="403.4978646934461" />
            </Array>
            <mxPoint as="offset" />
          </mxGeometry>
        </mxCell>
        <mxCell id="0B3zLSmvpdkR-Nhf8iE4-21" value="" style="endArrow=classic;html=1;rounded=0;fontFamily=Signika Negative;fontSource=https%3A%2F%2Ffonts.googleapis.com%2Fcss%3Ffamily%3DSignika%2BNegative;fontSize=14;" edge="1" parent="1">
          <mxGeometry x="0.0292" width="50" height="50" relative="1" as="geometry">
            <mxPoint x="4207" y="379" as="sourcePoint" />
            <mxPoint x="4718" y="254" as="targetPoint" />
            <Array as="points">
              <mxPoint x="4717.758383233533" y="379.7853911205074" />
            </Array>
            <mxPoint as="offset" />
          </mxGeometry>
        </mxCell>
        <mxCell id="0B3zLSmvpdkR-Nhf8iE4-25" value="" style="endArrow=classic;html=1;rounded=0;fontFamily=Signika Negative;fontSource=https%3A%2F%2Ffonts.googleapis.com%2Fcss%3Ffamily%3DSignika%2BNegative;fontSize=14;" edge="1" parent="1">
          <mxGeometry x="-0.2547" width="50" height="50" relative="1" as="geometry">
            <mxPoint x="3985" y="429" as="sourcePoint" />
            <mxPoint x="3430" y="254" as="targetPoint" />
            <Array as="points">
              <mxPoint x="3430.7823353293415" y="428.5718604651163" />
            </Array>
            <mxPoint as="offset" />
          </mxGeometry>
        </mxCell>
        <mxCell id="0B3zLSmvpdkR-Nhf8iE4-27" value="&lt;div style=&quot;font-size: 14px;&quot;&gt;&lt;br&gt;&lt;/div&gt;" style="endArrow=classic;html=1;rounded=0;align=left;horizontal=1;fontSize=14;fontFamily=Signika Negative;fontSource=https%3A%2F%2Ffonts.googleapis.com%2Fcss%3Ffamily%3DSignika%2BNegative;" edge="1" parent="1">
          <mxGeometry x="-0.2008" width="50" height="50" relative="1" as="geometry">
            <mxPoint x="3973" y="454" as="sourcePoint" />
            <mxPoint x="3369" y="254" as="targetPoint" />
            <Array as="points">
              <mxPoint x="3370.3429640718564" y="453.70505285412264" />
            </Array>
            <mxPoint as="offset" />
          </mxGeometry>
        </mxCell>
        <mxCell id="0B3zLSmvpdkR-Nhf8iE4-28" value="" style="endArrow=classic;html=1;rounded=0;fontFamily=Signika Negative;fontSource=https%3A%2F%2Ffonts.googleapis.com%2Fcss%3Ffamily%3DSignika%2BNegative;fontSize=14;" edge="1" parent="1">
          <mxGeometry x="-0.5212" width="50" height="50" relative="1" as="geometry">
            <mxPoint x="3964.6580838323353" y="489.7642494714588" as="sourcePoint" />
            <mxPoint x="3370.1296407185628" y="915" as="targetPoint" />
            <Array as="points">
              <mxPoint x="3370.1296407185637" y="489.7642494714588" />
            </Array>
            <mxPoint as="offset" />
          </mxGeometry>
        </mxCell>
        <mxCell id="0B3zLSmvpdkR-Nhf8iE4-29" value="" style="endArrow=classic;html=1;rounded=0;fontFamily=Signika Negative;fontSource=https%3A%2F%2Ffonts.googleapis.com%2Fcss%3Ffamily%3DSignika%2BNegative;fontSize=14;" edge="1" parent="1">
          <mxGeometry x="-0.4873" width="50" height="50" relative="1" as="geometry">
            <mxPoint x="3964.6580838323353" y="509.80864693446097" as="sourcePoint" />
            <mxPoint x="3401.6760479041914" y="915" as="targetPoint" />
            <Array as="points">
              <mxPoint x="3401.6760479041923" y="509.80864693446097" />
            </Array>
            <mxPoint as="offset" />
          </mxGeometry>
        </mxCell>
        <mxCell id="0B3zLSmvpdkR-Nhf8iE4-30" value="" style="endArrow=classic;html=1;rounded=0;fontFamily=Signika Negative;fontSource=https%3A%2F%2Ffonts.googleapis.com%2Fcss%3Ffamily%3DSignika%2BNegative;fontSize=14;" edge="1" parent="1">
          <mxGeometry x="-0.4213" width="50" height="50" relative="1" as="geometry">
            <mxPoint x="3973.151347305389" y="549.6944820295984" as="sourcePoint" />
            <mxPoint x="3462.342215568863" y="915" as="targetPoint" />
            <Array as="points">
              <mxPoint x="3462.342215568863" y="549.6944820295984" />
            </Array>
            <mxPoint as="offset" />
          </mxGeometry>
        </mxCell>
        <mxCell id="0B3zLSmvpdkR-Nhf8iE4-31" value="" style="endArrow=classic;html=1;rounded=0;fontFamily=Signika Negative;fontSource=https%3A%2F%2Ffonts.googleapis.com%2Fcss%3Ffamily%3DSignika%2BNegative;fontSize=14;" edge="1" parent="1">
          <mxGeometry x="-0.3732" width="50" height="50" relative="1" as="geometry">
            <mxPoint x="3979.217964071856" y="569.5359196617336" as="sourcePoint" />
            <mxPoint x="3491.4619760479045" y="915" as="targetPoint" />
            <Array as="points">
              <mxPoint x="3491.4619760479045" y="569.5359196617336" />
            </Array>
            <mxPoint as="offset" />
          </mxGeometry>
        </mxCell>
        <mxCell id="0B3zLSmvpdkR-Nhf8iE4-32" value="" style="endArrow=classic;html=1;rounded=0;fontFamily=Signika Negative;fontSource=https%3A%2F%2Ffonts.googleapis.com%2Fcss%3Ffamily%3DSignika%2BNegative;fontSize=14;" edge="1" parent="1">
          <mxGeometry x="-0.3179" width="50" height="50" relative="1" as="geometry">
            <mxPoint x="3988.924550898204" y="589.1743974630022" as="sourcePoint" />
            <mxPoint x="3520.581736526946" y="915" as="targetPoint" />
            <Array as="points">
              <mxPoint x="3520.5817365269468" y="589.1743974630022" />
            </Array>
            <mxPoint as="offset" />
          </mxGeometry>
        </mxCell>
        <mxCell id="0B3zLSmvpdkR-Nhf8iE4-33" value="" style="endArrow=classic;html=1;rounded=0;fontFamily=Signika Negative;fontSource=https%3A%2F%2Ffonts.googleapis.com%2Fcss%3Ffamily%3DSignika%2BNegative;fontSize=14;spacingTop=3;exitX=0.094;exitY=0.792;exitDx=0;exitDy=0;exitPerimeter=0;" edge="1" parent="1">
          <mxGeometry x="-0.2578" y="-2" width="50" height="50" relative="1" as="geometry">
            <mxPoint x="3998.631137724551" y="609.4279281183931" as="sourcePoint" />
            <mxPoint x="3550.9148203592813" y="915" as="targetPoint" />
            <Array as="points">
              <mxPoint x="3550.914820359282" y="609.8128752642707" />
            </Array>
            <mxPoint as="offset" />
          </mxGeometry>
        </mxCell>
        <mxCell id="0B3zLSmvpdkR-Nhf8iE4-38" value="TONSORIUM STAFF" style="rounded=0;whiteSpace=wrap;html=1;fontSize=26;fontFamily=Inter;strokeWidth=2;shadow=1;fontSource=https%3A%2F%2Ffonts.googleapis.com%2Fcss%3Ffamily%3DInter;fontStyle=1" vertex="1" parent="1">
          <mxGeometry x="4037.4574850299405" y="915.1321141649049" width="206.26497005988023" height="204.5031712473573" as="geometry" />
        </mxCell>
        <mxCell id="0B3zLSmvpdkR-Nhf8iE4-46" value="&lt;span style=&quot;font-size: 26px;&quot;&gt;ADMIN&lt;/span&gt;" style="rounded=0;whiteSpace=wrap;html=1;fontSize=26;fontFamily=Inter;strokeWidth=2;shadow=1;fontSource=https%3A%2F%2Ffonts.googleapis.com%2Fcss%3Ffamily%3DInter;fontStyle=1" vertex="1" parent="1">
          <mxGeometry x="3357.996407185629" y="49.00103594080338" width="206.26497005988023" height="204.5031712473573" as="geometry" />
        </mxCell>
        <mxCell id="0B3zLSmvpdkR-Nhf8iE4-47" value="" style="endArrow=classic;html=1;rounded=0;horizontal=0;fontFamily=Signika Negative;fontSource=https%3A%2F%2Ffonts.googleapis.com%2Fcss%3Ffamily%3DSignika%2BNegative;fontSize=13;" edge="1" parent="1">
          <mxGeometry x="0.0588" width="50" height="50" relative="1" as="geometry">
            <mxPoint x="4234.5892215568865" y="655.5253488372093" as="sourcePoint" />
            <mxPoint x="4234.5892215568865" y="915" as="targetPoint" />
            <mxPoint y="-1" as="offset" />
          </mxGeometry>
        </mxCell>
        <mxCell id="0B3zLSmvpdkR-Nhf8iE4-48" value="" style="endArrow=classic;html=1;rounded=0;horizontal=0;fontFamily=Signika Negative;fontSource=https%3A%2F%2Ffonts.googleapis.com%2Fcss%3Ffamily%3DSignika%2BNegative;fontSize=13;" edge="1" parent="1">
          <mxGeometry width="50" height="50" relative="1" as="geometry">
            <mxPoint x="4218.322754491018" y="666.5549471458775" as="sourcePoint" />
            <mxPoint x="4218.322754491018" y="915" as="targetPoint" />
          </mxGeometry>
        </mxCell>
        <mxCell id="0B3zLSmvpdkR-Nhf8iE4-49" value="" style="endArrow=classic;html=1;rounded=0;horizontal=0;fontFamily=Signika Negative;fontSource=https%3A%2F%2Ffonts.googleapis.com%2Fcss%3Ffamily%3DSignika%2BNegative;fontSize=13;" edge="1" parent="1">
          <mxGeometry width="50" height="50" relative="1" as="geometry">
            <mxPoint x="4153.789820359281" y="687.5845454545455" as="sourcePoint" />
            <mxPoint x="4153.789820359281" y="915" as="targetPoint" />
          </mxGeometry>
        </mxCell>
        <mxCell id="0B3zLSmvpdkR-Nhf8iE4-50" value="" style="endArrow=classic;html=1;rounded=0;horizontal=0;fontFamily=Signika Negative;fontSource=https%3A%2F%2Ffonts.googleapis.com%2Fcss%3Ffamily%3DSignika%2BNegative;fontSize=13;" edge="1" parent="1">
          <mxGeometry x="0.0047" width="50" height="50" relative="1" as="geometry">
            <mxPoint x="4202.05628742515" y="673.7727061310783" as="sourcePoint" />
            <mxPoint x="4202.05628742515" y="915" as="targetPoint" />
            <mxPoint as="offset" />
          </mxGeometry>
        </mxCell>
        <mxCell id="0B3zLSmvpdkR-Nhf8iE4-51" value="" style="endArrow=classic;html=1;rounded=0;horizontal=0;fontFamily=Signika Negative;fontSource=https%3A%2F%2Ffonts.googleapis.com%2Fcss%3Ffamily%3DSignika%2BNegative;fontSize=13;" edge="1" parent="1">
          <mxGeometry width="50" height="50" relative="1" as="geometry">
            <mxPoint x="4078.1236526946104" y="915" as="sourcePoint" />
            <mxPoint x="4078.1236526946104" y="679.7727061310783" as="targetPoint" />
          </mxGeometry>
        </mxCell>
        <mxCell id="0B3zLSmvpdkR-Nhf8iE4-52" value="" style="endArrow=classic;html=1;rounded=0;horizontal=0;fontFamily=Signika Negative;fontSource=https%3A%2F%2Ffonts.googleapis.com%2Fcss%3Ffamily%3DSignika%2BNegative;fontSize=13;" edge="1" parent="1">
          <mxGeometry x="-0.0564" width="50" height="50" relative="1" as="geometry">
            <mxPoint x="4060.8571856287426" y="915" as="sourcePoint" />
            <mxPoint x="4060.8571856287426" y="673.3519873150107" as="targetPoint" />
            <mxPoint y="-1" as="offset" />
          </mxGeometry>
        </mxCell>
        <mxCell id="0B3zLSmvpdkR-Nhf8iE4-53" value="" style="endArrow=classic;html=1;rounded=0;horizontal=0;fontFamily=Signika Negative;fontSource=https%3A%2F%2Ffonts.googleapis.com%2Fcss%3Ffamily%3DSignika%2BNegative;fontSize=13;" edge="1" parent="1">
          <mxGeometry width="50" height="50" relative="1" as="geometry">
            <mxPoint x="4044.590718562874" y="915" as="sourcePoint" />
            <mxPoint x="4044.590718562874" y="664.3223890063425" as="targetPoint" />
          </mxGeometry>
        </mxCell>
        <mxCell id="0B3zLSmvpdkR-Nhf8iE4-54" value="" style="endArrow=classic;html=1;rounded=0;horizontal=0;fontFamily=Signika Negative;fontSource=https%3A%2F%2Ffonts.googleapis.com%2Fcss%3Ffamily%3DSignika%2BNegative;fontSize=13;" edge="1" parent="1">
          <mxGeometry width="50" height="50" relative="1" as="geometry">
            <mxPoint x="4094.390119760479" y="915" as="sourcePoint" />
            <mxPoint x="4094.390119760479" y="684.3815856236787" as="targetPoint" />
          </mxGeometry>
        </mxCell>
        <mxCell id="0B3zLSmvpdkR-Nhf8iE4-55" value="" style="endArrow=classic;html=1;rounded=0;fontSize=14;fontFamily=Signika Negative;fontSource=https%3A%2F%2Ffonts.googleapis.com%2Fcss%3Ffamily%3DSignika%2BNegative;startSize=6;entryX=0.09;entryY=0.79;entryDx=0;entryDy=0;entryPerimeter=0;" edge="1" parent="1" target="0B3zLSmvpdkR-Nhf8iE4-40">
          <mxGeometry x="-0.5113" width="50" height="50" relative="1" as="geometry">
            <mxPoint x="3564.261377245509" y="935.5972304439747" as="sourcePoint" />
            <mxPoint x="3980" y="614" as="targetPoint" />
            <Array as="points">
              <mxPoint x="3928.258383233533" y="935.5972304439747" />
              <mxPoint x="3928.258383233533" y="632.4513530655391" />
            </Array>
            <mxPoint as="offset" />
          </mxGeometry>
        </mxCell>
        <mxCell id="0B3zLSmvpdkR-Nhf8iE4-56" value="" style="endArrow=classic;html=1;rounded=0;fontSize=14;fontFamily=Signika Negative;fontSource=https%3A%2F%2Ffonts.googleapis.com%2Fcss%3Ffamily%3DSignika%2BNegative;startSize=6;entryX=0.108;entryY=0.813;entryDx=0;entryDy=0;entryPerimeter=0;" edge="1" parent="1" target="0B3zLSmvpdkR-Nhf8iE4-40">
          <mxGeometry x="-0.5232" width="50" height="50" relative="1" as="geometry">
            <mxPoint x="3564.261377245509" y="963.0623467230445" as="sourcePoint" />
            <mxPoint x="3980" y="625" as="targetPoint" />
            <Array as="points">
              <mxPoint x="3937.964970059881" y="963.0623467230445" />
              <mxPoint x="3939.1782934131734" y="643.0750317124736" />
            </Array>
            <mxPoint as="offset" />
          </mxGeometry>
        </mxCell>
        <mxCell id="0B3zLSmvpdkR-Nhf8iE4-57" value="" style="endArrow=classic;html=1;rounded=0;fontSize=14;fontFamily=Signika Negative;fontSource=https%3A%2F%2Ffonts.googleapis.com%2Fcss%3Ffamily%3DSignika%2BNegative;startSize=6;entryX=0.129;entryY=0.836;entryDx=0;entryDy=0;entryPerimeter=0;" edge="1" parent="1" target="0B3zLSmvpdkR-Nhf8iE4-40">
          <mxGeometry x="-0.5378" width="50" height="50" relative="1" as="geometry">
            <mxPoint x="3564.261377245509" y="990.3245031712474" as="sourcePoint" />
            <mxPoint x="4000" y="630" as="targetPoint" />
            <Array as="points">
              <mxPoint x="3947.6715568862282" y="990.3245031712474" />
              <mxPoint x="3948.8848802395205" y="654.6987103594081" />
            </Array>
            <mxPoint as="offset" />
          </mxGeometry>
        </mxCell>
        <mxCell id="0B3zLSmvpdkR-Nhf8iE4-58" value="" style="endArrow=classic;html=1;rounded=0;fontSize=14;fontFamily=Signika Negative;fontSource=https%3A%2F%2Ffonts.googleapis.com%2Fcss%3Ffamily%3DSignika%2BNegative;startSize=6;entryX=0;entryY=1;entryDx=0;entryDy=0;" edge="1" parent="1" target="0B3zLSmvpdkR-Nhf8iE4-40">
          <mxGeometry x="-0.5446" width="50" height="50" relative="1" as="geometry">
            <mxPoint x="3564.261377245509" y="1017.5866596194505" as="sourcePoint" />
            <mxPoint x="4000" y="640" as="targetPoint" />
            <Array as="points">
              <mxPoint x="3958.5914670658685" y="1017.5866596194505" />
              <mxPoint x="3958.5914670658685" y="666.3223890063425" />
            </Array>
            <mxPoint as="offset" />
          </mxGeometry>
        </mxCell>
        <mxCell id="0B3zLSmvpdkR-Nhf8iE4-59" value="" style="endArrow=classic;html=1;rounded=0;fontSize=14;fontFamily=Signika Negative;fontSource=https%3A%2F%2Ffonts.googleapis.com%2Fcss%3Ffamily%3DSignika%2BNegative;startSize=6;entryX=0.187;entryY=0.895;entryDx=0;entryDy=0;entryPerimeter=0;" edge="1" parent="1" target="0B3zLSmvpdkR-Nhf8iE4-40">
          <mxGeometry x="-0.5689" width="50" height="50" relative="1" as="geometry">
            <mxPoint x="3563.261377245509" y="1072" as="sourcePoint" />
            <mxPoint x="4020" y="650" as="targetPoint" />
            <Array as="points">
              <mxPoint x="3978.217964071857" y="1072.1109725158565" />
              <mxPoint x="3979" y="690" />
            </Array>
            <mxPoint as="offset" />
          </mxGeometry>
        </mxCell>
        <mxCell id="0B3zLSmvpdkR-Nhf8iE4-60" value="" style="endArrow=classic;html=1;rounded=0;fontSize=14;fontFamily=Signika Negative;fontSource=https%3A%2F%2Ffonts.googleapis.com%2Fcss%3Ffamily%3DSignika%2BNegative;startSize=6;entryX=0.208;entryY=0.914;entryDx=0;entryDy=0;entryPerimeter=0;" edge="1" parent="1" target="0B3zLSmvpdkR-Nhf8iE4-40">
          <mxGeometry x="-0.583" width="50" height="50" relative="1" as="geometry">
            <mxPoint x="3564.261377245509" y="1099.1701691331925" as="sourcePoint" />
            <mxPoint x="4030" y="660" as="targetPoint" />
            <Array as="points">
              <mxPoint x="3988.924550898204" y="1099.1701691331925" />
              <mxPoint x="3990" y="700" />
            </Array>
            <mxPoint as="offset" />
          </mxGeometry>
        </mxCell>
        <mxCell id="0B3zLSmvpdkR-Nhf8iE4-66" value="" style="endArrow=classic;html=1;rounded=0;fontSize=14;fontFamily=Signika Negative;fontSource=https%3A%2F%2Ffonts.googleapis.com%2Fcss%3Ffamily%3DSignika%2BNegative;" edge="1" parent="1">
          <mxGeometry x="-0.1239" width="50" height="50" relative="1" as="geometry">
            <mxPoint x="4002" y="405" as="sourcePoint" />
            <mxPoint x="3492" y="254" as="targetPoint" />
            <Array as="points">
              <mxPoint x="3491.9552395209585" y="404.2801057082453" />
            </Array>
            <mxPoint as="offset" />
          </mxGeometry>
        </mxCell>
        <mxCell id="0B3zLSmvpdkR-Nhf8iE4-67" value="" style="endArrow=classic;html=1;rounded=0;fontSize=14;fontFamily=Signika Negative;fontSource=https%3A%2F%2Ffonts.googleapis.com%2Fcss%3Ffamily%3DSignika%2BNegative;startSize=6;entryX=0.169;entryY=0.872;entryDx=0;entryDy=0;entryPerimeter=0;" edge="1" parent="1" target="0B3zLSmvpdkR-Nhf8iE4-40">
          <mxGeometry x="-0.5446" width="50" height="50" relative="1" as="geometry">
            <mxPoint x="3563.261377245509" y="1044.8488160676534" as="sourcePoint" />
            <mxPoint x="4010" y="650" as="targetPoint" />
            <Array as="points">
              <mxPoint x="3968.5113772455097" y="1044.8488160676534" />
              <mxPoint x="3969.724700598802" y="676.7431078224101" />
            </Array>
            <mxPoint as="offset" />
          </mxGeometry>
        </mxCell>
        <mxCell id="0B3zLSmvpdkR-Nhf8iE4-68" value="" style="endArrow=classic;html=1;rounded=0;fontFamily=Signika Negative;fontSource=https%3A%2F%2Ffonts.googleapis.com%2Fcss%3Ffamily%3DSignika%2BNegative;fontSize=14;" edge="1" parent="1">
          <mxGeometry x="-0.4727" width="50" height="50" relative="1" as="geometry">
            <mxPoint x="3968.2980538922156" y="530.6500845665962" as="sourcePoint" />
            <mxPoint x="3430.7958083832336" y="915" as="targetPoint" />
            <Array as="points">
              <mxPoint x="3430.795808383234" y="530.6500845665962" />
            </Array>
            <mxPoint as="offset" />
          </mxGeometry>
        </mxCell>
        <mxCell id="0B3zLSmvpdkR-Nhf8iE4-70" value="" style="endArrow=classic;html=1;rounded=0;fontFamily=Signika Negative;fontSource=https%3A%2F%2Ffonts.googleapis.com%2Fcss%3Ffamily%3DSignika%2BNegative;fontSize=14;" edge="1" parent="1">
          <mxGeometry x="-0.5212" width="50" height="50" relative="1" as="geometry">
            <mxPoint x="4302" y="488.96424947145886" as="sourcePoint" />
            <mxPoint x="4899.528083832334" y="915" as="targetPoint" />
            <Array as="points">
              <mxPoint x="4899.528083832333" y="488.96424947145886" />
            </Array>
            <mxPoint as="offset" />
          </mxGeometry>
        </mxCell>
        <mxCell id="0B3zLSmvpdkR-Nhf8iE4-71" value="" style="endArrow=classic;html=1;rounded=0;fontFamily=Signika Negative;fontSource=https%3A%2F%2Ffonts.googleapis.com%2Fcss%3Ffamily%3DSignika%2BNegative;fontSize=14;" edge="1" parent="1">
          <mxGeometry x="-0.4873" width="50" height="50" relative="1" as="geometry">
            <mxPoint x="4304" y="507.80864693446097" as="sourcePoint" />
            <mxPoint x="4868.658083832333" y="915" as="targetPoint" />
            <Array as="points">
              <mxPoint x="4868.6580838323325" y="507.80864693446097" />
            </Array>
            <mxPoint as="offset" />
          </mxGeometry>
        </mxCell>
        <mxCell id="0B3zLSmvpdkR-Nhf8iE4-72" value="" style="endArrow=classic;html=1;rounded=0;fontFamily=Signika Negative;fontSource=https%3A%2F%2Ffonts.googleapis.com%2Fcss%3Ffamily%3DSignika%2BNegative;fontSize=14;" edge="1" parent="1">
          <mxGeometry x="-0.4213" width="50" height="50" relative="1" as="geometry">
            <mxPoint x="4297.342215568864" y="547.6944820295984" as="sourcePoint" />
            <mxPoint x="4808.15134730539" y="915" as="targetPoint" />
            <Array as="points">
              <mxPoint x="4808.15134730539" y="547.6944820295984" />
            </Array>
            <mxPoint as="offset" />
          </mxGeometry>
        </mxCell>
        <mxCell id="0B3zLSmvpdkR-Nhf8iE4-73" value="" style="endArrow=classic;html=1;rounded=0;fontFamily=Signika Negative;fontSource=https%3A%2F%2Ffonts.googleapis.com%2Fcss%3Ffamily%3DSignika%2BNegative;fontSize=14;" edge="1" parent="1">
          <mxGeometry x="-0.3732" width="50" height="50" relative="1" as="geometry">
            <mxPoint x="4289.4619760479045" y="568.5359196617336" as="sourcePoint" />
            <mxPoint x="4777.217964071856" y="915" as="targetPoint" />
            <Array as="points">
              <mxPoint x="4777.217964071856" y="568.5359196617336" />
            </Array>
            <mxPoint as="offset" />
          </mxGeometry>
        </mxCell>
        <mxCell id="0B3zLSmvpdkR-Nhf8iE4-74" value="" style="endArrow=classic;html=1;rounded=0;fontFamily=Signika Negative;fontSource=https%3A%2F%2Ffonts.googleapis.com%2Fcss%3Ffamily%3DSignika%2BNegative;fontSize=14;" edge="1" parent="1">
          <mxGeometry x="-0.3179" width="50" height="50" relative="1" as="geometry">
            <mxPoint x="4278.581736526945" y="586.1743974630022" as="sourcePoint" />
            <mxPoint x="4746.924550898203" y="915" as="targetPoint" />
            <Array as="points">
              <mxPoint x="4746.924550898202" y="586.1743974630022" />
            </Array>
            <mxPoint as="offset" />
          </mxGeometry>
        </mxCell>
        <mxCell id="0B3zLSmvpdkR-Nhf8iE4-75" value="" style="endArrow=classic;html=1;rounded=0;fontFamily=Signika Negative;fontSource=https%3A%2F%2Ffonts.googleapis.com%2Fcss%3Ffamily%3DSignika%2BNegative;fontSize=14;spacingTop=3;exitX=0.094;exitY=0.792;exitDx=0;exitDy=0;exitPerimeter=0;" edge="1" parent="1">
          <mxGeometry x="-0.2578" y="-2" width="50" height="50" relative="1" as="geometry">
            <mxPoint x="4270.004820359281" y="607.997928118393" as="sourcePoint" />
            <mxPoint x="4717.721137724551" y="915" as="targetPoint" />
            <Array as="points">
              <mxPoint x="4717.72113772455" y="608.3828752642708" />
            </Array>
            <mxPoint as="offset" />
          </mxGeometry>
        </mxCell>
        <mxCell id="0B3zLSmvpdkR-Nhf8iE4-76" value="" style="endArrow=classic;html=1;rounded=0;fontSize=14;fontFamily=Signika Negative;fontSource=https%3A%2F%2Ffonts.googleapis.com%2Fcss%3Ffamily%3DSignika%2BNegative;startSize=6;entryX=0.913;entryY=0.786;entryDx=0;entryDy=0;entryPerimeter=0;" edge="1" parent="1" target="0B3zLSmvpdkR-Nhf8iE4-40">
          <mxGeometry x="-0.5113" width="50" height="50" relative="1" as="geometry">
            <mxPoint x="4705" y="935.9772304439747" as="sourcePoint" />
            <mxPoint x="4290" y="616" as="targetPoint" />
            <Array as="points">
              <mxPoint x="4348.800778443114" y="935.9772304439747" />
              <mxPoint x="4348.800778443114" y="632.8313530655391" />
            </Array>
            <mxPoint as="offset" />
          </mxGeometry>
        </mxCell>
        <mxCell id="0B3zLSmvpdkR-Nhf8iE4-77" value="" style="endArrow=classic;html=1;rounded=0;fontSize=14;fontFamily=Signika Negative;fontSource=https%3A%2F%2Ffonts.googleapis.com%2Fcss%3Ffamily%3DSignika%2BNegative;startSize=6;entryX=0.899;entryY=0.807;entryDx=0;entryDy=0;entryPerimeter=0;" edge="1" parent="1" target="0B3zLSmvpdkR-Nhf8iE4-40">
          <mxGeometry x="-0.5232" width="50" height="50" relative="1" as="geometry">
            <mxPoint x="4705" y="963.0623467230445" as="sourcePoint" />
            <mxPoint x="4300" y="629" as="targetPoint" />
            <Array as="points">
              <mxPoint x="4339.296407185627" y="963.0623467230445" />
              <mxPoint x="4338.0830838323345" y="643.0750317124736" />
            </Array>
            <mxPoint as="offset" />
          </mxGeometry>
        </mxCell>
        <mxCell id="0B3zLSmvpdkR-Nhf8iE4-78" value="" style="endArrow=classic;html=1;rounded=0;fontSize=14;fontFamily=Signika Negative;fontSource=https%3A%2F%2Ffonts.googleapis.com%2Fcss%3Ffamily%3DSignika%2BNegative;startSize=6;entryX=0.883;entryY=0.825;entryDx=0;entryDy=0;entryPerimeter=0;" edge="1" parent="1" target="0B3zLSmvpdkR-Nhf8iE4-40">
          <mxGeometry x="-0.5378" width="50" height="50" relative="1" as="geometry">
            <mxPoint x="4705" y="989.3245031712474" as="sourcePoint" />
            <mxPoint x="4279" y="629" as="targetPoint" />
            <Array as="points">
              <mxPoint x="4329.5898203592815" y="989.3245031712474" />
              <mxPoint x="4328.376497005989" y="653.6987103594081" />
            </Array>
            <mxPoint as="offset" />
          </mxGeometry>
        </mxCell>
        <mxCell id="0B3zLSmvpdkR-Nhf8iE4-79" value="" style="endArrow=classic;html=1;rounded=0;fontSize=14;fontFamily=Signika Negative;fontSource=https%3A%2F%2Ffonts.googleapis.com%2Fcss%3Ffamily%3DSignika%2BNegative;startSize=6;entryX=0.869;entryY=0.842;entryDx=0;entryDy=0;entryPerimeter=0;" edge="1" parent="1" target="0B3zLSmvpdkR-Nhf8iE4-40">
          <mxGeometry x="-0.5446" width="50" height="50" relative="1" as="geometry">
            <mxPoint x="4705" y="1017.5866596194505" as="sourcePoint" />
            <mxPoint x="4269" y="642" as="targetPoint" />
            <Array as="points">
              <mxPoint x="4318.669910179639" y="1017.5866596194505" />
              <mxPoint x="4318.669910179639" y="666.3223890063425" />
            </Array>
            <mxPoint as="offset" />
          </mxGeometry>
        </mxCell>
        <mxCell id="0B3zLSmvpdkR-Nhf8iE4-80" value="" style="endArrow=classic;html=1;rounded=0;fontSize=14;fontFamily=Signika Negative;fontSource=https%3A%2F%2Ffonts.googleapis.com%2Fcss%3Ffamily%3DSignika%2BNegative;startSize=6;entryX=0.834;entryY=0.877;entryDx=0;entryDy=0;entryPerimeter=0;" edge="1" parent="1" target="0B3zLSmvpdkR-Nhf8iE4-40">
          <mxGeometry x="-0.5689" width="50" height="50" relative="1" as="geometry">
            <mxPoint x="4705" y="1072.1109725158565" as="sourcePoint" />
            <mxPoint x="4268" y="676" as="targetPoint" />
            <Array as="points">
              <mxPoint x="4297.860928143713" y="1072.1109725158565" />
              <mxPoint x="4296.64760479042" y="688.3667864693447" />
            </Array>
            <mxPoint as="offset" />
          </mxGeometry>
        </mxCell>
        <mxCell id="0B3zLSmvpdkR-Nhf8iE4-82" value="" style="endArrow=classic;html=1;rounded=0;fontSize=14;fontFamily=Signika Negative;fontSource=https%3A%2F%2Ffonts.googleapis.com%2Fcss%3Ffamily%3DSignika%2BNegative;startSize=6;entryX=0.851;entryY=0.859;entryDx=0;entryDy=0;entryPerimeter=0;" edge="1" parent="1" target="0B3zLSmvpdkR-Nhf8iE4-40">
          <mxGeometry x="-0.5446" width="50" height="50" relative="1" as="geometry">
            <mxPoint x="4705" y="1044.8488160676534" as="sourcePoint" />
            <mxPoint x="4260" y="654" as="targetPoint" />
            <Array as="points">
              <mxPoint x="4308.749999999998" y="1044.8488160676534" />
              <mxPoint x="4307.536676646706" y="676.7431078224101" />
            </Array>
            <mxPoint as="offset" />
          </mxGeometry>
        </mxCell>
        <mxCell id="0B3zLSmvpdkR-Nhf8iE4-83" value="" style="endArrow=classic;html=1;rounded=0;fontFamily=Signika Negative;fontSource=https%3A%2F%2Ffonts.googleapis.com%2Fcss%3Ffamily%3DSignika%2BNegative;fontSize=14;" edge="1" parent="1">
          <mxGeometry x="-0.4727" width="50" height="50" relative="1" as="geometry">
            <mxPoint x="4300.795808383234" y="528.6500845665962" as="sourcePoint" />
            <mxPoint x="4838.298053892216" y="915" as="targetPoint" />
            <Array as="points">
              <mxPoint x="4838.298053892215" y="528.6500845665962" />
            </Array>
            <mxPoint as="offset" />
          </mxGeometry>
        </mxCell>
        <mxCell id="0B3zLSmvpdkR-Nhf8iE4-84" value="" style="endArrow=classic;html=1;rounded=0;horizontal=0;fontFamily=Signika Negative;fontSource=https%3A%2F%2Ffonts.googleapis.com%2Fcss%3Ffamily%3DSignika%2BNegative;fontSize=13;" edge="1" parent="1">
          <mxGeometry width="50" height="50" relative="1" as="geometry">
            <mxPoint x="4111.390119760479" y="915" as="sourcePoint" />
            <mxPoint x="4111.390119760479" y="687.3815856236787" as="targetPoint" />
          </mxGeometry>
        </mxCell>
        <mxCell id="0B3zLSmvpdkR-Nhf8iE4-85" value="" style="endArrow=classic;html=1;rounded=0;horizontal=0;fontFamily=Signika Negative;fontSource=https%3A%2F%2Ffonts.googleapis.com%2Fcss%3Ffamily%3DSignika%2BNegative;fontSize=13;" edge="1" parent="1">
          <mxGeometry width="50" height="50" relative="1" as="geometry">
            <mxPoint x="4128.390119760479" y="915" as="sourcePoint" />
            <mxPoint x="4128" y="689" as="targetPoint" />
          </mxGeometry>
        </mxCell>
        <mxCell id="0B3zLSmvpdkR-Nhf8iE4-86" value="" style="endArrow=classic;html=1;rounded=0;horizontal=0;fontFamily=Signika Negative;fontSource=https%3A%2F%2Ffonts.googleapis.com%2Fcss%3Ffamily%3DSignika%2BNegative;fontSize=13;" edge="1" parent="1">
          <mxGeometry width="50" height="50" relative="1" as="geometry">
            <mxPoint x="4169.789820359281" y="684.5845454545455" as="sourcePoint" />
            <mxPoint x="4169.789820359281" y="915" as="targetPoint" />
          </mxGeometry>
        </mxCell>
        <mxCell id="0B3zLSmvpdkR-Nhf8iE4-87" value="" style="endArrow=classic;html=1;rounded=0;horizontal=0;fontFamily=Signika Negative;fontSource=https%3A%2F%2Ffonts.googleapis.com%2Fcss%3Ffamily%3DSignika%2BNegative;fontSize=13;" edge="1" parent="1">
          <mxGeometry width="50" height="50" relative="1" as="geometry">
            <mxPoint x="4185.789820359281" y="680.5845454545455" as="sourcePoint" />
            <mxPoint x="4185.789820359281" y="915" as="targetPoint" />
          </mxGeometry>
        </mxCell>
        <mxCell id="0B3zLSmvpdkR-Nhf8iE4-44" value="" style="endArrow=classic;html=1;rounded=0;fontFamily=Signika Negative;fontSource=https%3A%2F%2Ffonts.googleapis.com%2Fcss%3Ffamily%3DSignika%2BNegative;fontSize=14;align=center;movable=1;resizable=1;rotatable=1;deletable=1;editable=1;locked=0;connectable=1;" edge="1" parent="1">
          <mxGeometry x="0.069" width="50" height="50" relative="1" as="geometry">
            <mxPoint x="4038" y="380" as="sourcePoint" />
            <mxPoint x="3550" y="254" as="targetPoint" />
            <Array as="points">
              <mxPoint x="3550.310344827586" y="380" />
            </Array>
            <mxPoint as="offset" />
          </mxGeometry>
        </mxCell>
        <mxCell id="0B3zLSmvpdkR-Nhf8iE4-40" value="" style="ellipse;whiteSpace=wrap;html=1;aspect=fixed;shadow=1;strokeWidth=3;" vertex="1" parent="1">
          <mxGeometry x="3960.41" y="343.99" width="344.0397406529416" height="344.0397406529416" as="geometry" />
        </mxCell>
        <mxCell id="0B3zLSmvpdkR-Nhf8iE4-41" value="" style="endArrow=none;html=1;rounded=0;endSize=6;startSize=6;jumpSize=6;strokeWidth=3;shadow=0;" edge="1" parent="1">
          <mxGeometry width="50" height="50" relative="1" as="geometry">
            <mxPoint x="3984.4896551724137" y="427" as="sourcePoint" />
            <mxPoint x="4280" y="427" as="targetPoint" />
          </mxGeometry>
        </mxCell>
        <mxCell id="0B3zLSmvpdkR-Nhf8iE4-42" value="LEVEL 0" style="text;html=1;strokeColor=none;fillColor=none;align=center;verticalAlign=middle;whiteSpace=wrap;rounded=0;fontSize=30;fontFamily=Roboto;fontStyle=1;fontSource=https%3A%2F%2Ffonts.googleapis.com%2Fcss%3Ffamily%3DRoboto;" vertex="1" parent="1">
          <mxGeometry x="4024.9918465357487" y="368.32410976478974" width="219.19909553420013" height="46.93727726300785" as="geometry" />
        </mxCell>
        <mxCell id="0B3zLSmvpdkR-Nhf8iE4-43" value="&lt;font style=&quot;font-size: 39px;&quot;&gt;TONSORIUM&lt;br style=&quot;font-size: 39px;&quot;&gt;TWITS&lt;/font&gt;" style="text;html=1;strokeColor=none;fillColor=none;align=center;verticalAlign=middle;whiteSpace=wrap;rounded=0;fontSize=39;fontFamily=Roboto;fontSource=https%3A%2F%2Ffonts.googleapis.com%2Fcss%3Ffamily%3DRoboto;fontStyle=1;spacing=2;horizontal=1;spacingBottom=3;" vertex="1" parent="1">
          <mxGeometry x="4017.812300734878" y="486.94098360655744" width="229.22781232334663" height="79.9672131147541" as="geometry" />
        </mxCell>
        <mxCell id="0B3zLSmvpdkR-Nhf8iE4-81" value="" style="endArrow=classic;html=1;rounded=0;fontSize=14;fontFamily=Signika Negative;fontSource=https%3A%2F%2Ffonts.googleapis.com%2Fcss%3Ffamily%3DSignika%2BNegative;startSize=6;entryX=0.812;entryY=0.893;entryDx=0;entryDy=0;entryPerimeter=0;" edge="1" parent="1" target="0B3zLSmvpdkR-Nhf8iE4-40">
          <mxGeometry x="-0.583" width="50" height="50" relative="1" as="geometry">
            <mxPoint x="4705" y="1100" as="sourcePoint" />
            <mxPoint x="4240.458348891494" y="646.2174884030769" as="targetPoint" />
            <Array as="points">
              <mxPoint x="4286" y="1100" />
              <mxPoint x="4285.543570124868" y="696.4" />
            </Array>
            <mxPoint as="offset" />
          </mxGeometry>
        </mxCell>
      </root>
    </mxGraphModel>
  </diagram>
</mxfile>
